<svg xmlns="http://www.w3.org/2000/svg" xmlns:xlink="http://www.w3.org/1999/xlink" width="500" zoomAndPan="magnify" viewBox="0 0 375 374.999991" height="500" preserveAspectRatio="xMidYMid meet" version="1.0"><defs><clipPath id="8b1338c9fb"><path d="M 167 7.5 L 371 7.5 L 371 330 L 167 330 Z M 167 7.5 " clip-rule="nonzero"/></clipPath></defs><g clip-path="url(#8b1338c9fb)"><path fill="#ff0000" d="M 300.550781 155.472656 C 300.550781 155.472656 294.589844 267.265625 188.796875 318.40625 C 172.976562 291.867188 154.078125 248.628906 180.527344 179.707031 C 199.519531 130.230469 268.023438 95.828125 291.378906 62.722656 C 317.777344 25.28125 304.730469 7.460938 304.730469 7.460938 C 304.730469 7.460938 374.980469 79.910156 369.917969 158.648438 C 361.40625 290.894531 256.996094 321.703125 216.78125 329.539062 C 333.582031 232.355469 300.550781 155.472656 300.550781 155.472656 " fill-opacity="1" fill-rule="nonzero"/></g><path fill="#ff0000" d="M 64.882812 276.957031 C 64.882812 276.957031 108.214844 331.382812 180.199219 319.105469 C 178.632812 299.972656 172.613281 271.273438 134.367188 245.9375 C 106.914062 227.746094 59.832031 235.039062 36.078125 226.710938 C 9.214844 217.285156 9.386719 203.546875 9.386719 203.546875 C 9.386719 203.546875 -0.0390625 265.558594 30.921875 303.578125 C 82.914062 367.445312 146.875 345.371094 170.058594 334.835938 C 75.898438 327.777344 64.882812 276.957031 64.882812 276.957031 " fill-opacity="1" fill-rule="nonzero"/></svg>