<?xml version="1.0" encoding="UTF-8"?><svg id="Layer_2" xmlns="http://www.w3.org/2000/svg" width="110.84" height="39.69" viewBox="0 0 110.84 39.69"><g id="Layer_1-2"><g><path d="M0,19.77C.09,9.08,8.63-.09,20.06,0c11,.08,19.78,8.97,19.7,20.04-.03,3.52-.96,6.8-2.75,9.83-1.8,3.05-4.25,5.46-7.33,7.21-3.33,1.89-6.94,2.67-10.75,2.6C7.81,38.94,.05,30.09,0,19.77Zm37.11-1.28c.07-.12,.04-.25,.03-.37-.09-.73-.17-1.46-.35-2.17-1.15-4.66-3.73-8.29-7.8-10.85-.42-.27-.88-.48-1.33-.71-.17-.08-.32-.08-.3,.21,0,.06,0,.13,0,.19,0,4.41,0,8.82,0,13.23,0,.52-.05,.54,.57,.54,2.9,0,5.79,0,8.69,0,.17,0,.34,.03,.49-.06Zm-9.74,9.78c0,2.16,0,4.32,0,6.49,0,.17,0,.34,0,.5,0,.11,.1,.14,.18,.11,.23-.11,.45-.23,.66-.36,2.07-1.21,3.9-2.7,5.38-4.59,1.73-2.21,2.79-4.71,3.32-7.46,.1-.53,.18-1.08,.25-1.62,.03-.18-.03-.24-.19-.25-.1,0-.21,0-.31,0-2.92,0-5.84,0-8.75,0-.54,0-.54,0-.54,.56,0,2.2,0,4.41,0,6.61Zm-7.43,.88c0,2.41,0,4.83,0,7.24,0,.17,0,.34,0,.5,0,.2,.06,.26,.27,.25,.57-.03,1.13-.06,1.69-.12,.9-.09,1.78-.28,2.65-.52,.16-.04,.25-.14,.24-.32,0-.08,0-.17,0-.25,0-4.77,0-9.53,0-14.3,0-.13,0-.25,0-.38,0-.1-.08-.15-.16-.15-.15-.01-.29-.01-.44-.01-1.22,0-2.44,0-3.65,0-.65,0-.6-.02-.6,.63,0,2.48,0,4.96,0,7.43Zm4.86-18.27c0-2.44,0-4.87,0-7.31,0-.32-.03-.37-.32-.45-1.38-.38-2.79-.57-4.22-.62-.06,0-.12,0-.19,.01-.08,0-.12,.06-.13,.12-.02,.15-.02,.29-.02,.44,0,4.98,0,9.95,0,14.93,0,.13,0,.25,.01,.38,0,.09,.07,.15,.16,.16,.12,.01,.25,.02,.38,.02,1.26,0,2.52,0,3.78,0,.59,0,.54-.02,.54-.56,0-2.37,0-4.75,0-7.12ZM4.48,21.28c.72,.05,1.47-.55,1.5-1.45,.02-.77-.65-1.44-1.41-1.48-.64-.04-1.5,.5-1.54,1.43-.03,.88,.76,1.53,1.45,1.5Z" fill="#e62627"/><path d="M56.24,19.31c1.61,2.04,3.22,4.03,4.8,6.02-.05,.17-.17,.13-.26,.13-1.47,0-2.94,0-4.41,.02-.45,0-.73-.16-.99-.53-1.11-1.58-2.24-3.15-3.36-4.72-.12-.16-.25-.32-.37-.48-.16,.11-.11,.25-.11,.36,0,1.55,0,3.11,0,4.66,0,.15,0,.29,0,.44,0,.12-.06,.19-.18,.2-.08,0-.17,0-.25,0-1.2,0-2.4,0-3.59,0-.08,0-.17,0-.25,0-.12,0-.2-.06-.2-.19,0-.13,0-.25,0-.38,0-5.72,0-11.43,0-17.15,0-.11,0-.21,0-.32,.01-.24,.05-.29,.3-.28,1.41,.02,2.82,.03,4.22,.07,1.28,.04,2.56,.1,3.84,.16,2.32,.11,4.19,1.55,4.92,3.77,.48,1.47,.54,2.97,.05,4.46-.25,.77-.66,1.45-1.19,2.06-.64,.74-1.45,1.19-2.38,1.46-.12,.03-.24,.06-.36,.1-.04,.01-.07,.04-.2,.1Zm-4.71-5.9h0c0,.25,0,.5,0,.75,0,.5,0,1.01,0,1.51,0,.28,.03,.31,.27,.3,.77-.02,1.55,0,2.32-.12,1.13-.19,1.86-.87,2.05-2,.23-1.43-.48-2.62-2.04-2.84-.77-.11-1.55-.1-2.32-.12-.25,0-.27,.02-.27,.3,0,.73,0,1.47,0,2.2Z" fill="#e62627"/><path d="M65.72,19.39c.11,.74,.37,1.3,.87,1.73,.94,.81,2.03,1.07,3.23,.73,.51-.15,.95-.44,1.3-.85,.18-.21,.39-.3,.66-.3,1.18,0,2.35,0,3.53,0,.17,0,.22,.08,.16,.24,0,.02-.02,.04-.03,.06-1.01,2.24-2.65,3.79-5.08,4.3-2.56,.55-4.85-.13-6.68-2.03-3.8-3.94-2.08-10.28,2.73-12.02,3.45-1.24,8,.25,9.34,4.78,.29,.98,.35,1.98,.26,2.99-.03,.33-.06,.36-.37,.37-.15,0-.29,0-.44,0-2.9,0-5.8,0-8.7,0-.23,0-.46,0-.77,0Zm6.12-2.81c-.01-.11,0-.19-.03-.27-.24-.74-.71-1.28-1.4-1.62-.68-.34-1.4-.44-2.14-.33-.79,.12-1.47,.49-1.98,1.12-.25,.31-.44,.66-.46,1.1h6Z" fill="#e62627"/><path d="M103.31,25.43c-.93,.04-1.88-.12-2.79-.46-2.16-.78-4.23-3.27-4.48-5.81-.18-1.8,.21-3.47,1.1-5.02,.65-1.12,1.57-1.97,2.76-2.5,2-.9,4.06-1.06,6.13-.36,2.18,.73,3.6,2.25,4.29,4.44,.1,.32,.16,.65,.27,.97,.3,.88,.29,1.78,.12,2.67-.21,1.13-.6,2.18-1.27,3.13-1.09,1.53-2.57,2.44-4.4,2.81-.56,.11-1.12,.14-1.74,.13Zm3.36-7.23c.02-.36-.05-.72-.15-1.06-.33-1.15-1.27-2.32-2.97-2.42-1.41-.08-2.6,.77-3.13,2.02-.31,.74-.38,1.5-.19,2.28,.52,2.12,2.74,3.18,4.62,2.21,1.21-.63,1.75-1.7,1.81-3.03Z" fill="#e62627"/><path d="M79.16,20.15c0-1.56,0-3.11,0-4.67,0-.13,0-.25,0-.38,0-.13-.08-.2-.19-.2-.4,0-.8,0-1.2,0-.15,0-.29,0-.44,0-.12,0-.18-.09-.19-.2,0-.04,0-.08,0-.13,0-.82,0-1.64,0-2.46,0-.32,.02-.34,.37-.35,.44,0,.88,0,1.32,0,.24,0,.29-.06,.29-.31,0-1.05,0-2.1,0-3.15,0-.29,0-.59,0-.88,0-.09,.05-.16,.15-.17,.08,0,.17-.01,.25-.01,1.09,0,2.19,0,3.28,0,.45,0,.43,.01,.43,.47,0,1.16,0,2.31,0,3.47,0,.55-.05,.56,.54,.56,.38,0,.76,0,1.13,0,.22,0,.28,.06,.28,.25,0,.88,0,1.77,0,2.65,0,.16-.09,.23-.23,.23-.46,0-.92,0-1.39,0-.24,0-.28,.05-.29,.3,0,.17,0,.34,0,.5,0,3.01,0,6.01,0,9.02,0,.19,0,.38,0,.57,0,.12-.07,.19-.19,.21-.02,0-.04,0-.06,0-1.2,0-2.4,0-3.59,0-.02,0-.04,0-.06,0-.12,0-.2-.06-.2-.19,0-.17,0-.34,0-.5,0-1.53,0-3.07,0-4.6Z" fill="#e62627"/><path d="M88.88,11.73V7.39c.08-.15,.16-.16,.24-.16,1.2,0,2.4,0,3.59,0,.28,0,.3,.03,.3,.34,0,1.16,0,2.31,0,3.47,0,.76-.08,.67,.67,.68,.36,0,.71,0,1.07,0,.15,0,.23,.09,.23,.24,0,.88,0,1.77,0,2.65,0,.15-.08,.23-.23,.23-.48,0-.97,0-1.45,0-.22,0-.26,.05-.27,.25,0,.17,0,.34,0,.5,0,3.07,0,6.14,0,9.21,0,.7,.08,.63-.65,.63-1.05,0-2.1,0-3.15,0-.29,0-.32-.04-.32-.33,0-.53,0-1.05,0-1.58,0-2.63,0-5.26,0-7.88,0-.15,0-.29,0-.44,0-.33-.03-.35-.37-.35-.46,0-.92,0-1.39,0-.15,0-.23-.08-.23-.23,0-.86,0-1.72,0-2.59,0-.22,.04-.26,.26-.26,.42,0,.84,0,1.26,0,.13,0,.25-.02,.44-.03Z" fill="#e62627"/><path d="M92.69,29.88c0,.06,0,.15-.03,.22-.29,.94-.58,1.88-.88,2.83-.1,.31-.1,.31-.45,.31-.04,0-.08,0-.13,0-.27,.04-.42-.07-.51-.33-.14-.4-.31-.78-.47-1.17-.22,.11-.21,.32-.29,.48-.1,.21-.17,.43-.26,.64-.15,.38-.15,.38-.54,.38-.45,0-.46,0-.6-.45-.28-.88-.55-1.76-.82-2.64-.03-.09-.1-.19-.04-.3,.04-.02,.07-.04,.11-.05q.85-.06,1.07,.73c.09,.32,.18,.64,.27,.95,.17,.03,.2-.07,.24-.16,.17-.41,.34-.81,.51-1.22,.03-.08,.07-.15,.12-.22,.08-.11,.32-.1,.38,.02,.14,.28,.26,.57,.38,.86,.09,.21,.19,.42,.29,.63,.01,.03,.06,.05,.1,.05,.03,0,.09-.03,.09-.05,.11-.34,.21-.68,.31-1.02,.16-.58,.16-.58,.75-.57,.12,0,.25-.04,.38,.08Z" fill="#151515"/><path d="M61.04,29.8c.62-.01,1.16-.04,1.7,.02,.81,.09,1.38,.69,1.45,1.48,.08,.88-.34,1.57-1.11,1.82-.16,.05-.32,.1-.49,.1-.44,.02-.88,0-1.32,0-.15,0-.24-.07-.24-.23,0-1.05,0-2.09,0-3.21Zm1,.91c-.05,.53-.05,1.06,0,1.59,.79,.07,1.2-.23,1.18-.83-.02-.59-.39-.83-1.18-.76Z" fill="#151515"/><path d="M59.04,31.13c-.06,0-.13,0-.19,0-.18,.02-.31-.05-.41-.21-.17-.28-.44-.37-.76-.34-.2,.02-.36,.11-.49,.26-.28,.32-.3,.89-.05,1.23,.3,.39,.88,.43,1.22,.07,.07-.07,.12-.17,.17-.26,.05-.08,.12-.12,.21-.12,.08,0,.17,0,.25,0,.61,0,.66,.09,.37,.64-.38,.71-1.2,1.05-2.05,.86-.73-.17-1.27-.82-1.35-1.57-.12-1.24,.9-2.31,2.39-1.93,.47,.12,.81,.43,1.02,.87,.25,.53,.16,.53-.33,.52Z" fill="#151515"/><path d="M106.94,31.83c.12-.4,.22-.71,.31-1.03,.05-.18,.15-.24,.32-.22,.21,.02,.42-.04,.61,.04,0,.05,.03,.09,.02,.13-.24,.76-.48,1.52-.71,2.27-.05,.17-.16,.23-.33,.22-.06,0-.13,0-.19,0-.22,.03-.35-.07-.43-.28-.08-.19-.17-.38-.25-.57-.03-.08-.07-.15-.2-.17-.11,.25-.23,.51-.34,.78-.07,.18-.19,.26-.39,.24-.08,0-.17,0-.25,0-.15,.01-.24-.06-.29-.19-.26-.79-.52-1.58-.77-2.35,.09-.14,.21-.11,.31-.11,.77,0,.58-.09,.8,.58,.05,.16,.1,.32,.15,.48,0,.03,.06,.05,.09,.05,.03,0,.08-.02,.1-.05,.15-.3,.29-.6,.44-.9,.09-.19,.29-.19,.39-.02,.08,.15,.14,.3,.22,.45,.11,.2,.16,.43,.39,.67Z" fill="#151515"/><path d="M49.02,31.01c0,.29,0,.59,0,.88-.03,.8-.53,1.33-1.33,1.39-.19,.01-.38,0-.56-.02-.64-.1-1.1-.6-1.12-1.25-.02-.67,0-1.34,0-2.01,0-.12,.07-.19,.19-.2,.15,0,.29,0,.44,0,.32,0,.35,.03,.35,.36,0,.44,0,.88,0,1.32,0,.15,0,.29,.01,.44,.03,.31,.2,.45,.49,.46,.32,.01,.52-.15,.54-.48,.02-.4,.01-.8,.01-1.19,0-.21,0-.42,0-.63,0-.25,.04-.29,.3-.29,.8,0,.68-.07,.69,.65,0,.19,0,.38,0,.57h0Z" fill="#151515"/><path d="M99.57,30.61c.09-.28,.03-.55,.05-.82,.01-.12,.07-.19,.2-.19,.21,0,.42,0,.59,0,.15,.11,.12,.25,.12,.36,0,.94,0,1.88,0,2.83,0,.08,0,.17,0,.25,0,.12-.05,.2-.18,.2-.16,0-.34,.06-.49-.06-.13-.1-.23-.04-.34,0-.14,.05-.28,.09-.42,.11-.57,.05-1.04-.14-1.33-.65-.29-.51-.28-1.05,.06-1.54,.33-.48,.81-.63,1.37-.56,.12,.02,.24,.05,.38,.08Zm-.5,.74c-.31,0-.56,.25-.57,.54,0,.31,.28,.59,.6,.58,.3,0,.56-.27,.57-.55,0-.32-.26-.58-.6-.57Z" fill="#151515"/><path d="M85.44,29.59c.26,0,.44,0,.63,0,.26,0,.28,.02,.28,.29,0,1,0,2.01,0,3.01,0,.31-.06,.39-.38,.32-.35-.07-.67-.03-1.01,.03-.55,.11-1.05-.08-1.36-.57-.32-.5-.33-1.03-.02-1.54,.32-.52,.82-.69,1.4-.62,.08,0,.16,.05,.24,.06,.12,.02,.2-.03,.2-.17,0-.25,0-.5,0-.83Zm-.52,1.75c-.35,0-.6,.24-.59,.57,0,.31,.24,.54,.56,.56,.33,.01,.6-.25,.59-.58,0-.31-.24-.54-.56-.55Z" fill="#151515"/><path d="M49.67,29.81c.6-.03,1.16-.06,1.72,0,.62,.07,1.04,.6,1.03,1.23,0,.64-.44,1.13-1.06,1.21-.19,.02-.38,.02-.57,.03-.09,0-.15,.07-.16,.16,0,.17,0,.34-.01,.5-.01,.24-.05,.27-.31,.28-.15,0-.29,0-.44,0-.12,0-.21-.05-.21-.18,0-1.07,0-2.14,0-3.24Zm.97,1.09c0,.19,0,.28,0,.36,.01,.15,.08,.2,.25,.2,.13,0,.25-.02,.36-.09,.22-.14,.24-.47,.04-.64-.16-.13-.35-.12-.53-.1-.04,0-.09,.08-.1,.13-.02,.08-.02,.16-.01,.13Z" fill="#151515"/><path d="M53.76,33.24c-.3-.63-1.17-2.86-1.31-3.36,.26-.07,.76-.11,.9-.08,.11,.03,.17,.11,.2,.22,.13,.4,.26,.8,.39,1.19,.05,.15,.08,.32,.24,.47,.33-.6,.4-1.28,.7-1.88,.28,0,.55,0,.82,0,.16,0,.21,.08,.14,.25-.38,1-.76,1.99-1.14,2.99-.05,.13-.13,.2-.28,.2-.23,0-.46,0-.67,0Z" fill="#151515"/><path d="M79.79,31.92c0,.38,0,.75,0,1.13,0,.12-.07,.19-.2,.19-.23,0-.44-.04-.66-.1-.2-.05-.42,.14-.66,.15-.6,.02-1.07-.19-1.34-.73-.26-.53-.23-1.07,.15-1.53,.38-.47,.88-.6,1.46-.46,.23,.06,.45,.19,.7,.03,.09-.06,.24,0,.37,0,.13,0,.18,.08,.18,.2,0,.38,0,.75,0,1.13,0,0,0,0,0,0Zm-.89,0c.01-.3-.22-.55-.53-.58-.35-.03-.63,.2-.64,.53,0,.31,.22,.56,.53,.59,.32,.03,.63-.23,.64-.54Z" fill="#151515"/><path d="M102.51,33.28c-.39,0-.67-.07-.92-.23-.84-.55-.83-1.81,.04-2.31,.55-.32,1.12-.32,1.68-.01,.5,.27,.76,.85,.66,1.38-.1,.59-.53,1.03-1.11,1.14-.14,.03-.29,.03-.35,.03Zm-.03-.82c.31,0,.55-.24,.56-.54,0-.32-.22-.55-.54-.56-.34-.01-.61,.24-.6,.57,.01,.29,.28,.54,.58,.54Z" fill="#151515"/><path d="M66.1,33.28c-.42,0-.69-.06-.93-.2-.89-.53-.89-1.83,0-2.35,.53-.3,1.08-.31,1.62-.03,.51,.26,.79,.82,.72,1.36-.08,.59-.49,1.06-1.07,1.18-.16,.04-.33,.04-.35,.04Zm-.09-.82c.31,0,.56-.23,.57-.53,.01-.32-.2-.56-.52-.57-.34-.02-.62,.23-.61,.55,0,.29,.27,.54,.57,.55Z" fill="#151515"/><path d="M97.19,33.18c-1.1,.13-.86,.11-.88-.71,0-.27,0-.55-.02-.82-.01-.2-.15-.32-.31-.33-.22-.01-.37,.08-.43,.28-.03,.12-.05,.25-.06,.37,0,.21,0,.42,0,.63,0,.73,.05,.63-.64,.63-.24,0-.27-.04-.27-.31,0-.75,0-1.51,0-2.26,.18-.14,.38-.1,.56-.07,.35,.06,.39,.08,.65-.02,.74-.26,1.45,.19,1.45,.98,0,.46,0,.92,0,1.38,0,.08-.02,.16-.03,.24Z" fill="#151515"/><path d="M69.29,33.29c-.32-.01-.59-.05-.83-.19-.48-.28-.7-.7-.69-1.25,.02-.53,.26-.92,.73-1.16,.5-.25,1.01-.25,1.51-.01,.54,.26,.81,.77,.74,1.4-.06,.58-.48,1.04-1.07,1.16-.14,.03-.29,.03-.39,.04Zm.54-1.35c.02-.31-.2-.56-.52-.58-.33-.02-.58,.18-.61,.49-.03,.33,.21,.61,.55,.62,.31,0,.57-.22,.58-.53Z" fill="#151515"/><path d="M80.34,30.6c.3,0,.55-.12,.76,.13,.06,.07,.11,.02,.17,0,.16-.06,.3-.15,.46-.18,.65-.15,1.21,.22,1.25,.88,.04,.58,0,1.17,0,1.74-.07,.04-.1,.07-.14,.07-.88,0-.76,.12-.77-.76,0-.27,0-.55-.01-.82-.01-.21-.14-.32-.31-.34-.21-.01-.39,.1-.44,.28-.02,.1-.03,.21-.04,.31,0,.23,0,.46,0,.69,0,.7,.04,.63-.66,.63-.24,0-.28-.05-.28-.3,0-.75,0-1.51,0-2.33Z" fill="#151515"/><path d="M109.5,33.28c-.62,0-.95-.21-1.13-.7-.06-.15,0-.23,.16-.24,.1,0,.21-.01,.31-.01,.08,0,.11-.05,.13-.11,0-.03-.02-.08-.05-.1-.07-.05-.14-.08-.22-.12-.43-.22-.39-.87-.13-1.15,.44-.47,1.45-.47,1.87,.02,.07,.08,.11,.18,.15,.27,.06,.15,0,.26-.14,.27-.15,0-.29,0-.44,0-.06,0-.16,.03-.16,.06-.02,.11,.08,.11,.15,.13,.08,.02,.16,.06,.24,.08,.55,.17,.63,.94,.15,1.33-.26,.21-.56,.25-.88,.26Zm.03-2.08c-.11,0-.19,.03-.21,.12-.03,.09,.04,.15,.12,.18,.08,.02,.16,.05,.24,.05,.04,0,.11-.05,.09-.13-.03-.14-.12-.21-.24-.21Zm.07,1.38c.07,.01,.1-.06,.12-.11,.03-.08-.02-.18-.1-.21-.12-.04-.25-.05-.37-.05-.03,0-.06,.05-.09,.08,0,0,.02,.04,.03,.05,.1,.14,.19,.28,.41,.24Z" fill="#151515"/><path d="M74.63,31.49c.05,.19,.24,.14,.36,.2,.5,.24,.63,.75,.33,1.19-.37,.55-1.86,.61-2.14-.21-.02-.06-.03-.12-.04-.18,0-.07,.03-.12,.09-.13,.08-.01,.17,0,.25-.02,.1,0,.24,.04,.28-.08,.07-.18-.13-.17-.22-.23-.55-.37-.53-1.06,.05-1.36,.45-.24,.92-.23,1.38,0,.17,.09,.29,.23,.38,.4,.1,.2,.03,.32-.18,.34-.18,.02-.37-.05-.54,.07Zm-.07-.05c-.03-.2-.25-.29-.43-.18-.08,.05-.05,.13-.02,.16,.09,.09,.22,.13,.34,.13,.05,0,.11-.04,.11-.11Zm-.39,.78c-.05,0-.1-.01-.13,0-.03,.01-.08,.05-.08,.08,0,.17,.31,.35,.47,.27,.03-.02,.07-.06,.07-.1,0-.06-.02-.12-.05-.16-.07-.09-.19-.07-.27-.09Z" fill="#151515"/><path d="M71.22,30.64c.13-.09,.29-.03,.43-.06,.18-.03,.19,.24,.36,.18,.14-.05,.27-.12,.41-.16,.14-.03,.29-.04,.43,.01,.09,.11,.06,.24,.06,.36,0,.39,0,.39-.39,.46-.32,.05-.4,.12-.41,.44-.01,.38,0,.75,0,1.13,0,.15-.08,.22-.23,.22-.21,0-.42,0-.62,0-.08-.49-.09-1.94-.03-2.6Z" fill="#151515"/><path d="M93.05,31.87c0-.36,0-.71,0-1.07,0-.16,.08-.22,.23-.22,.77,0,.69-.1,.69,.64,0,.59,0,1.17,0,1.76,0,.21-.04,.25-.26,.25-.13,0-.25,0-.38,0-.25,0-.28-.03-.28-.3,0-.36,0-.71,0-1.07h0Z" fill="#151515"/><path d="M93.12,30.23c-.13-.9-.06-.76,.6-.77,.06,0,.12,.01,.19,.02,.12,.18,.06,.37,.07,.55,0,.12-.04,.2-.17,.2-.23,0-.46,0-.68,0Z" fill="#151515"/></g></g></svg>