<?xml version="1.0" encoding="UTF-8"?><svg id="Layer_1" xmlns="http://www.w3.org/2000/svg" viewBox="0 0 201.68 199.74"><path d="M3.48,99.49C3.93,47.17,45.73,2.26,101.71,2.69c53.85,.42,96.88,43.94,96.48,98.15-.13,17.25-4.71,33.32-13.48,48.15-8.82,14.93-20.79,26.73-35.89,35.3-16.32,9.27-33.98,13.08-52.64,12.74C41.75,193.4,3.72,150.04,3.48,99.49Zm181.73-6.26c.33-.58,.21-1.2,.14-1.81-.42-3.57-.83-7.15-1.7-10.65-5.65-22.81-18.27-40.62-38.2-53.15-2.08-1.31-4.31-2.37-6.51-3.48-.82-.41-1.55-.37-1.48,1.04,.02,.31,0,.62,0,.93,0,21.6,0,43.19,0,64.79,0,2.52-.23,2.64,2.77,2.64,14.19-.01,28.38,0,42.57-.01,.81,0,1.65,.15,2.41-.3Zm-47.68,47.92c0,10.59,0,21.18,0,31.77,0,.82,0,1.64,.05,2.46,.03,.55,.48,.71,.86,.52,1.11-.53,2.18-1.13,3.24-1.75,10.14-5.9,19.08-13.21,26.33-22.48,8.46-10.82,13.67-23.09,16.28-36.52,.51-2.62,.87-5.27,1.24-7.91,.12-.89-.14-1.15-.94-1.2-.51-.03-1.03-.03-1.54-.03-14.29,0-28.58,0-42.87,0-2.64,0-2.65,.02-2.65,2.75,0,10.8,0,21.59,0,32.39Zm-36.39,4.3c0,11.83,0,23.66,0,35.48,0,.82-.02,1.65,.01,2.47,.04,.99,.28,1.26,1.34,1.2,2.77-.16,5.54-.32,8.3-.6,4.4-.46,8.72-1.38,12.98-2.55,.78-.22,1.22-.69,1.18-1.55-.02-.41,0-.82,0-1.23,0-23.35,0-46.69,0-70.04,0-.62,0-1.23-.04-1.85-.03-.47-.37-.72-.8-.76-.72-.05-1.44-.07-2.16-.07-5.96,0-11.93,0-17.89,0-3.18,0-2.92-.09-2.92,3.09,0,12.14,0,24.27,0,36.41Zm23.82-89.51c0-11.93,0-23.86,0-35.79,0-1.58-.16-1.81-1.55-2.19-6.77-1.85-13.68-2.79-20.68-3.06-.3-.01-.61,.04-.92,.06-.37,.02-.58,.32-.62,.59-.09,.71-.11,1.43-.11,2.15,0,24.37,0,48.75,0,73.12,0,.62,.01,1.23,.06,1.85,.04,.46,.35,.74,.8,.78,.61,.06,1.23,.08,1.84,.08,6.17,0,12.34,0,18.51,0,2.91,0,2.66-.08,2.66-2.73,0-11.62,0-23.24,0-34.86ZM25.42,106.91c3.53,.22,7.22-2.71,7.35-7.09,.11-3.75-3.17-7.05-6.92-7.27-3.14-.19-7.36,2.45-7.54,7-.17,4.29,3.72,7.49,7.11,7.36Z" fill="#e62627"/></svg>