<?xml version="1.0" encoding="UTF-8"?><svg id="Layer_2" xmlns="http://www.w3.org/2000/svg" width="39.75" height="39.69" viewBox="0 0 39.75 39.69"><g id="Layer_1-2"><path d="M0,19.77C.09,9.08,8.63-.09,20.06,0c11,.08,19.78,8.97,19.7,20.04-.03,3.52-.96,6.8-2.75,9.83-1.8,3.05-4.25,5.46-7.33,7.21-3.33,1.89-6.94,2.67-10.75,2.6C7.81,38.94,.05,30.09,0,19.77Zm37.11-1.28c.07-.12,.04-.25,.03-.37-.09-.73-.17-1.46-.35-2.17-1.15-4.66-3.73-8.29-7.8-10.85-.42-.27-.88-.48-1.33-.71-.17-.08-.32-.08-.3,.21,0,.06,0,.13,0,.19,0,4.41,0,8.82,0,13.23,0,.52-.05,.54,.57,.54,2.9,0,5.79,0,8.69,0,.17,0,.34,.03,.49-.06Zm-9.74,9.78c0,2.16,0,4.32,0,6.49,0,.17,0,.34,0,.5,0,.11,.1,.14,.18,.11,.23-.11,.45-.23,.66-.36,2.07-1.21,3.9-2.7,5.38-4.59,1.73-2.21,2.79-4.71,3.32-7.46,.1-.53,.18-1.08,.25-1.62,.03-.18-.03-.24-.19-.25-.1,0-.21,0-.31,0-2.92,0-5.84,0-8.75,0-.54,0-.54,0-.54,.56,0,2.2,0,4.41,0,6.61Zm-7.43,.88c0,2.41,0,4.83,0,7.24,0,.17,0,.34,0,.5,0,.2,.06,.26,.27,.25,.57-.03,1.13-.06,1.69-.12,.9-.09,1.78-.28,2.65-.52,.16-.04,.25-.14,.24-.32,0-.08,0-.17,0-.25,0-4.77,0-9.53,0-14.3,0-.13,0-.25,0-.38,0-.1-.08-.15-.16-.15-.15-.01-.29-.01-.44-.01-1.22,0-2.44,0-3.65,0-.65,0-.6-.02-.6,.63,0,2.48,0,4.96,0,7.43Zm4.86-18.27c0-2.44,0-4.87,0-7.31,0-.32-.03-.37-.32-.45-1.38-.38-2.79-.57-4.22-.62-.06,0-.12,0-.19,.01-.08,0-.12,.06-.13,.12-.02,.15-.02,.29-.02,.44,0,4.98,0,9.95,0,14.93,0,.13,0,.25,.01,.38,0,.09,.07,.15,.16,.16,.12,.01,.25,.02,.38,.02,1.26,0,2.52,0,3.78,0,.59,0,.54-.02,.54-.56,0-2.37,0-4.75,0-7.12ZM4.48,21.28c.72,.05,1.47-.55,1.5-1.45,.02-.77-.65-1.44-1.41-1.48-.64-.04-1.5,.5-1.54,1.43-.03,.88,.76,1.53,1.45,1.5Z" fill="#e62627"/></g></svg>