<svg xmlns="http://www.w3.org/2000/svg" xmlns:xlink="http://www.w3.org/1999/xlink" width="500" zoomAndPan="magnify" viewBox="0 0 375 374.999991" height="500" preserveAspectRatio="xMidYMid meet" version="1.0"><path fill="#ff0000" d="M 247.214844 213.375 C 257.484375 189.574219 252.960938 160.910156 233.539062 141.492188 C 218.058594 126.011719 196.722656 120.042969 176.679688 123.476562 L 214.609375 161.40625 L 201.972656 201.898438 L 161.585938 214.632812 L 123.65625 176.703125 C 120.265625 196.796875 126.261719 218.15625 141.746094 233.640625 C 161.160156 253.0625 189.777344 257.539062 213.511719 247.203125 L 310.203125 343.894531 C 319.519531 353.210938 334.617188 353.195312 343.925781 343.851562 C 353.230469 334.511719 353.222656 319.378906 343.902344 310.0625 L 247.214844 213.375 " fill-opacity="1" fill-rule="nonzero"/><path fill="#ff0000" d="M 331.125 160.550781 C 327.332031 140.273438 319.421875 121.460938 308.1875 105.0625 L 333.332031 68.140625 L 306.949219 41.757812 L 270.027344 66.898438 C 253.628906 55.667969 234.816406 47.753906 214.539062 43.960938 L 206.199219 0.0234375 L 168.886719 0.0234375 L 160.554688 43.960938 C 140.269531 47.753906 121.460938 55.667969 105.0625 66.898438 L 68.140625 41.757812 L 41.757812 68.140625 L 66.898438 105.0625 C 55.667969 121.460938 47.753906 140.273438 43.964844 160.550781 L 0.0234375 168.886719 L 0.0234375 206.199219 L 43.964844 214.539062 C 47.753906 234.816406 55.667969 253.625 66.898438 270.027344 L 41.757812 306.949219 L 68.140625 333.332031 L 105.0625 308.1875 C 121.460938 319.421875 140.269531 327.332031 160.550781 331.121094 L 168.886719 375.0625 L 206.199219 375.0625 L 214.539062 331.121094 C 225.042969 329.160156 235.128906 326.042969 244.714844 321.980469 L 211.269531 288.570312 C 203.640625 290.355469 195.722656 291.398438 187.542969 291.398438 C 130.1875 291.398438 83.6875 244.90625 83.6875 187.542969 C 83.6875 130.183594 130.1875 83.6875 187.542969 83.6875 C 244.902344 83.6875 291.398438 130.183594 291.398438 187.542969 C 291.398438 195.730469 290.355469 203.65625 288.566406 211.296875 L 321.992188 244.691406 C 326.050781 235.113281 329.160156 225.03125 331.125 214.539062 L 375.0625 206.199219 L 375.0625 168.886719 L 331.125 160.550781 " fill-opacity="1" fill-rule="nonzero"/></svg>