<svg xmlns="http://www.w3.org/2000/svg" xmlns:xlink="http://www.w3.org/1999/xlink" width="500" zoomAndPan="magnify" viewBox="0 0 375 374.999991" height="500" preserveAspectRatio="xMidYMid meet" version="1.0"><defs><clipPath id="65771a1924"><path d="M 38 264 L 87 264 L 87 332.699219 L 38 332.699219 Z M 38 264 " clip-rule="nonzero"/></clipPath><clipPath id="168a2491e1"><path d="M 169 268 L 217 268 L 217 332.699219 L 169 332.699219 Z M 169 268 " clip-rule="nonzero"/></clipPath><clipPath id="27c4679e13"><path d="M 104 231 L 152 231 L 152 332.699219 L 104 332.699219 Z M 104 231 " clip-rule="nonzero"/></clipPath><clipPath id="f989441b25"><path d="M 234 203 L 282 203 L 282 332.699219 L 234 332.699219 Z M 234 203 " clip-rule="nonzero"/></clipPath><clipPath id="252cea446c"><path d="M 299 166 L 347 166 L 347 332.699219 L 299 332.699219 Z M 299 166 " clip-rule="nonzero"/></clipPath><clipPath id="ee10ddec65"><path d="M 6.183594 42.449219 L 369 42.449219 L 369 271 L 6.183594 271 Z M 6.183594 42.449219 " clip-rule="nonzero"/></clipPath></defs><g clip-path="url(#65771a1924)"><path fill="#ff0000" d="M 86.054688 265.414062 C 86.054688 265.074219 85.898438 264.839844 85.585938 264.710938 C 85.273438 264.582031 84.996094 264.636719 84.753906 264.875 L 39.125 310.511719 C 38.976562 310.664062 38.902344 310.84375 38.902344 311.054688 L 38.90625 330.859375 C 38.90625 331.074219 38.945312 331.28125 39.027344 331.480469 C 39.109375 331.675781 39.226562 331.851562 39.378906 332.003906 C 39.53125 332.15625 39.707031 332.273438 39.90625 332.355469 C 40.105469 332.441406 40.3125 332.480469 40.527344 332.480469 L 84.441406 332.480469 C 84.65625 332.480469 84.863281 332.441406 85.0625 332.355469 C 85.261719 332.273438 85.433594 332.15625 85.585938 332.003906 C 85.738281 331.851562 85.855469 331.675781 85.941406 331.480469 C 86.023438 331.28125 86.0625 331.074219 86.0625 330.855469 Z M 86.054688 265.414062 " fill-opacity="1" fill-rule="nonzero"/></g><g clip-path="url(#168a2491e1)"><path fill="#ff0000" d="M 216.351562 269.421875 C 216.351562 269.082031 216.191406 268.847656 215.878906 268.714844 C 215.566406 268.585938 215.289062 268.640625 215.046875 268.882812 L 186.378906 297.550781 C 186.230469 297.699219 186.050781 297.773438 185.839844 297.773438 C 185.628906 297.773438 185.449219 297.699219 185.300781 297.550781 L 170.496094 282.746094 C 170.253906 282.503906 169.976562 282.449219 169.664062 282.582031 C 169.351562 282.710938 169.191406 282.945312 169.191406 283.285156 L 169.199219 330.859375 C 169.199219 331.074219 169.238281 331.28125 169.320312 331.480469 C 169.40625 331.675781 169.523438 331.851562 169.675781 332.003906 C 169.828125 332.15625 170.003906 332.273438 170.199219 332.355469 C 170.398438 332.441406 170.605469 332.480469 170.820312 332.480469 L 214.734375 332.480469 C 214.949219 332.480469 215.15625 332.441406 215.355469 332.355469 C 215.554688 332.273438 215.730469 332.15625 215.878906 332.003906 C 216.03125 331.851562 216.148438 331.675781 216.234375 331.476562 C 216.316406 331.28125 216.355469 331.074219 216.355469 330.855469 Z M 216.351562 269.421875 " fill-opacity="1" fill-rule="nonzero"/></g><g clip-path="url(#27c4679e13)"><path fill="#ff0000" d="M 151.203125 263.773438 C 151.203125 263.5625 151.128906 263.382812 150.980469 263.230469 L 120.425781 232.675781 C 120.195312 232.445312 119.929688 232.269531 119.625 232.144531 C 119.324219 232.019531 119.011719 231.957031 118.6875 231.957031 C 118.359375 231.957031 118.046875 232.019531 117.746094 232.144531 C 117.445312 232.269531 117.179688 232.445312 116.949219 232.679688 L 104.269531 245.359375 C 104.121094 245.507812 104.046875 245.6875 104.046875 245.898438 L 104.050781 330.855469 C 104.050781 331.074219 104.09375 331.28125 104.175781 331.480469 C 104.257812 331.675781 104.375 331.851562 104.527344 332.003906 C 104.679688 332.15625 104.855469 332.273438 105.054688 332.355469 C 105.253906 332.441406 105.460938 332.480469 105.675781 332.480469 L 149.585938 332.480469 C 149.800781 332.480469 150.007812 332.441406 150.207031 332.355469 C 150.40625 332.273438 150.582031 332.15625 150.734375 332.003906 C 150.886719 331.851562 151.003906 331.675781 151.085938 331.480469 C 151.167969 331.28125 151.210938 331.074219 151.210938 330.855469 Z M 151.203125 263.773438 " fill-opacity="1" fill-rule="nonzero"/></g><g clip-path="url(#f989441b25)"><path fill="#ff0000" d="M 281.496094 204.269531 C 281.496094 203.929688 281.339844 203.695312 281.023438 203.566406 C 280.710938 203.433594 280.433594 203.488281 280.195312 203.730469 L 234.5625 249.363281 C 234.414062 249.511719 234.339844 249.691406 234.339844 249.902344 L 234.34375 330.859375 C 234.34375 331.074219 234.386719 331.28125 234.46875 331.480469 C 234.550781 331.675781 234.667969 331.851562 234.820312 332.003906 C 234.972656 332.15625 235.148438 332.273438 235.347656 332.355469 C 235.546875 332.441406 235.753906 332.480469 235.96875 332.480469 L 279.878906 332.480469 C 280.09375 332.480469 280.300781 332.441406 280.5 332.355469 C 280.699219 332.273438 280.875 332.15625 281.027344 332.003906 C 281.179688 331.851562 281.296875 331.675781 281.378906 331.480469 C 281.460938 331.28125 281.503906 331.074219 281.503906 330.855469 Z M 281.496094 204.269531 " fill-opacity="1" fill-rule="nonzero"/></g><g clip-path="url(#252cea446c)"><path fill="#ff0000" d="M 346.640625 193.613281 C 346.640625 193.402344 346.566406 193.222656 346.417969 193.074219 L 320.375 167.023438 C 320.144531 166.792969 319.878906 166.617188 319.578125 166.492188 C 319.277344 166.367188 318.960938 166.304688 318.636719 166.304688 C 318.308594 166.304688 317.996094 166.367188 317.695312 166.492188 C 317.394531 166.617188 317.128906 166.792969 316.898438 167.023438 L 299.707031 184.214844 C 299.558594 184.363281 299.484375 184.542969 299.484375 184.753906 L 299.492188 330.855469 C 299.492188 331.074219 299.53125 331.28125 299.613281 331.480469 C 299.699219 331.675781 299.816406 331.851562 299.96875 332.003906 C 300.121094 332.15625 300.292969 332.273438 300.492188 332.355469 C 300.691406 332.441406 300.898438 332.480469 301.113281 332.480469 L 345.027344 332.480469 C 345.242188 332.480469 345.449219 332.441406 345.648438 332.355469 C 345.847656 332.273438 346.019531 332.15625 346.171875 332.003906 C 346.324219 331.851562 346.441406 331.675781 346.527344 331.480469 C 346.609375 331.28125 346.648438 331.074219 346.648438 330.855469 Z M 346.640625 193.613281 " fill-opacity="1" fill-rule="nonzero"/></g><g clip-path="url(#ee10ddec65)"><path fill="#ff0000" d="M 365.933594 42.636719 L 260.691406 62.886719 C 260.261719 62.96875 259.886719 63.152344 259.5625 63.445312 C 259.238281 63.734375 259.015625 64.089844 258.886719 64.503906 C 258.757812 64.921875 258.746094 65.339844 258.851562 65.761719 C 258.957031 66.183594 259.164062 66.550781 259.472656 66.859375 L 285.289062 92.675781 L 187.578125 190.394531 C 187.347656 190.625 187.082031 190.804688 186.78125 190.929688 C 186.476562 191.054688 186.164062 191.117188 185.839844 191.117188 C 185.511719 191.117188 185.199219 191.054688 184.898438 190.929688 C 184.597656 190.804688 184.332031 190.625 184.101562 190.394531 L 120.925781 127.230469 C 120.628906 126.933594 120.285156 126.703125 119.898438 126.542969 C 119.507812 126.378906 119.101562 126.300781 118.679688 126.300781 C 118.261719 126.300781 117.855469 126.378906 117.464844 126.542969 C 117.078125 126.703125 116.734375 126.933594 116.4375 127.230469 L 7.117188 236.5625 C 6.816406 236.859375 6.589844 237.203125 6.425781 237.589844 C 6.265625 237.980469 6.183594 238.386719 6.183594 238.808594 C 6.183594 239.226562 6.265625 239.632812 6.425781 240.023438 C 6.589844 240.410156 6.816406 240.753906 7.117188 241.050781 L 35.972656 269.90625 C 36.269531 270.203125 36.613281 270.429688 37.003906 270.59375 C 37.390625 270.753906 37.796875 270.835938 38.21875 270.835938 C 38.640625 270.835938 39.042969 270.753906 39.433594 270.59375 C 39.820312 270.429688 40.164062 270.203125 40.464844 269.90625 L 116.945312 193.414062 C 117.175781 193.183594 117.445312 193.003906 117.746094 192.878906 C 118.046875 192.757812 118.359375 192.695312 118.6875 192.695312 C 119.011719 192.695312 119.324219 192.757812 119.625 192.878906 C 119.929688 193.003906 120.195312 193.183594 120.425781 193.414062 L 183.59375 256.582031 C 183.890625 256.878906 184.234375 257.109375 184.625 257.269531 C 185.011719 257.433594 185.417969 257.511719 185.839844 257.511719 C 186.261719 257.511719 186.664062 257.433594 187.054688 257.269531 C 187.445312 257.109375 187.785156 256.878906 188.085938 256.582031 L 318.636719 126.023438 L 344.453125 151.839844 C 344.761719 152.148438 345.128906 152.355469 345.550781 152.460938 C 345.972656 152.566406 346.390625 152.554688 346.808594 152.425781 C 347.222656 152.300781 347.578125 152.074219 347.867188 151.75 C 348.160156 151.425781 348.34375 151.050781 348.425781 150.621094 L 368.6875 45.390625 C 368.722656 45.203125 368.738281 45.011719 368.726562 44.820312 C 368.714844 44.628906 368.683594 44.441406 368.628906 44.257812 C 368.570312 44.074219 368.492188 43.898438 368.394531 43.734375 C 368.296875 43.570312 368.175781 43.417969 368.042969 43.28125 C 367.90625 43.148438 367.753906 43.027344 367.589844 42.929688 C 367.425781 42.832031 367.25 42.753906 367.066406 42.695312 C 366.882812 42.640625 366.695312 42.605469 366.503906 42.597656 C 366.3125 42.585938 366.121094 42.597656 365.933594 42.636719 Z M 365.933594 42.636719 " fill-opacity="1" fill-rule="nonzero"/></g></svg>