<svg xmlns="http://www.w3.org/2000/svg" xmlns:xlink="http://www.w3.org/1999/xlink" width="500" zoomAndPan="magnify" viewBox="0 0 375 374.999991" height="500" preserveAspectRatio="xMidYMid meet" version="1.0"><defs><clipPath id="577eead3c3"><path d="M 0 261 L 370 261 L 370 371.25 L 0 371.25 Z M 0 261 " clip-rule="nonzero"/></clipPath></defs><path fill="#ff0000" d="M 21.511719 313.9375 C 24.925781 315.921875 28.609375 316.734375 32.328125 316.546875 C 38.855469 316.222656 45.136719 312.679688 48.558594 306.546875 L 98.746094 218.238281 L 83.613281 212.035156 C 76.003906 208.933594 69.609375 203.621094 65.214844 196.882812 L 14.035156 286.894531 C 8.632812 296.441406 11.964844 308.535156 21.511719 313.9375 Z M 21.511719 313.9375 " fill-opacity="1" fill-rule="nonzero"/><path fill="#ff0000" d="M 192.714844 74.277344 C 211.917969 73.324219 226.710938 56.980469 225.753906 37.777344 C 224.796875 18.574219 208.457031 3.78125 189.253906 4.738281 C 170.050781 5.695312 155.257812 22.035156 156.214844 41.238281 C 157.171875 60.441406 173.511719 75.234375 192.714844 74.277344 Z M 192.714844 74.277344 " fill-opacity="1" fill-rule="nonzero"/><path fill="#ff0000" d="M 43.785156 134.171875 C 51.035156 139.742188 61.417969 138.371094 66.988281 131.132812 L 89.570312 101.734375 L 114.464844 98.554688 L 81.605469 164.96875 C 79.164062 169.898438 78.882812 175.617188 80.824219 180.765625 C 82.761719 185.914062 86.746094 190.027344 91.832031 192.125 L 148.886719 215.652344 L 120.066406 259.515625 C 114.042969 268.683594 116.589844 280.992188 125.753906 287.011719 C 129.414062 289.417969 133.570312 290.453125 137.628906 290.253906 C 143.738281 289.949219 149.628906 286.828125 153.246094 281.320312 L 195.269531 217.367188 C 198.527344 212.417969 199.398438 206.277344 197.652344 200.617188 C 195.90625 194.957031 191.726562 190.371094 186.25 188.113281 L 146.339844 171.652344 L 171.226562 130.59375 L 186.183594 160.117188 C 189.195312 166.0625 195.375 169.488281 201.761719 169.167969 C 203.230469 169.097656 204.71875 168.820312 206.179688 168.335938 L 243.820312 155.777344 C 252.484375 152.886719 257.167969 143.511719 254.277344 134.84375 C 251.386719 126.179688 242.039062 121.488281 233.34375 124.386719 L 209.25 132.425781 L 195.984375 106.246094 C 192.019531 98.417969 185.921875 91.9375 178.34375 87.511719 L 148.894531 70.308594 C 140.273438 65.28125 130.105469 63.183594 120.179688 64.464844 L 78.542969 69.785156 C 74.175781 70.34375 70.207031 72.621094 67.523438 76.117188 L 40.746094 110.972656 C 35.179688 118.21875 36.542969 128.605469 43.785156 134.171875 Z M 43.785156 134.171875 " fill-opacity="1" fill-rule="nonzero"/><g clip-path="url(#577eead3c3)"><path fill="#ff0000" d="M 364.933594 264.414062 C 362.066406 262.171875 358.328125 261.378906 354.789062 262.25 L 9.613281 347.910156 C 3.804688 349.351562 -0.0117188 354.902344 0.714844 360.84375 C 1.441406 366.78125 6.484375 371.246094 12.464844 371.246094 L 357.640625 371.246094 C 364.179688 371.246094 369.480469 365.945312 369.480469 359.40625 L 369.480469 273.742188 C 369.480469 270.097656 367.804688 266.65625 364.933594 264.414062 Z M 364.933594 264.414062 " fill-opacity="1" fill-rule="nonzero"/></g><path fill="#ff0000" d="M 363.757812 148.847656 L 337.214844 148.847656 L 345.179688 97.007812 C 346.550781 88.058594 335.03125 83.242188 329.628906 90.507812 L 269.945312 170.78125 C 265.6875 176.507812 269.777344 184.644531 276.914062 184.644531 L 303.457031 184.644531 L 295.492188 236.484375 C 294.117188 245.433594 305.640625 250.246094 311.042969 242.984375 L 370.726562 162.710938 C 374.984375 156.980469 370.894531 148.847656 363.757812 148.847656 Z M 363.757812 148.847656 " fill-opacity="1" fill-rule="nonzero"/></svg>