<svg xmlns="http://www.w3.org/2000/svg" xmlns:xlink="http://www.w3.org/1999/xlink" width="500" zoomAndPan="magnify" viewBox="0 0 375 374.999991" height="500" preserveAspectRatio="xMidYMid meet" version="1.0"><path fill="#ff0000" d="M 167.675781 3.464844 L 38.976562 223.761719 C 37.894531 225.605469 37.886719 227.726562 38.953125 229.578125 C 40.019531 231.433594 41.851562 232.496094 43.988281 232.496094 L 160.925781 232.496094 C 162.835938 232.496094 164.472656 233.328125 165.601562 234.863281 C 166.734375 236.398438 167.035156 238.214844 166.46875 240.035156 L 126.960938 366.308594 C 126.140625 368.945312 127.226562 371.710938 129.625 373.085938 C 132.015625 374.453125 134.957031 373.988281 136.8125 371.945312 L 334.78125 153.398438 C 336.359375 151.65625 336.738281 149.292969 335.789062 147.144531 C 334.835938 145 332.828125 143.691406 330.476562 143.691406 L 209.066406 143.691406 C 206.925781 143.691406 205.085938 142.625 204.027344 140.765625 C 202.96875 138.902344 202.976562 136.785156 204.066406 134.933594 L 277.976562 9.34375 C 279.0625 7.5 279.074219 5.375 278.015625 3.515625 C 276.949219 1.652344 275.113281 0.589844 272.972656 0.589844 L 172.6875 0.589844 C 170.5625 0.589844 168.746094 1.632812 167.675781 3.464844 Z M 167.675781 3.464844 " fill-opacity="1" fill-rule="evenodd"/><path fill="#ff0000" d="M 212.132812 0.589844 C 205.832031 65.9375 186.511719 121.019531 154.164062 165.832031 L 280.972656 165.832031 C 245.652344 211.648438 199.160156 262.984375 141.5 319.851562 L 126.960938 366.308594 C 126.140625 368.945312 127.226562 371.710938 129.625 373.085938 C 132.015625 374.453125 134.957031 373.988281 136.8125 371.945312 L 334.78125 153.398438 C 336.359375 151.65625 336.738281 149.292969 335.789062 147.144531 C 334.835938 145 332.828125 143.691406 330.476562 143.691406 L 209.066406 143.691406 C 206.925781 143.691406 205.085938 142.625 204.027344 140.765625 C 202.96875 138.902344 202.976562 136.785156 204.066406 134.933594 L 277.976562 9.34375 C 279.0625 7.5 279.074219 5.375 278.015625 3.515625 C 276.949219 1.652344 275.113281 0.589844 272.972656 0.589844 Z M 212.132812 0.589844 " fill-opacity="1" fill-rule="evenodd"/></svg>