<svg xmlns="http://www.w3.org/2000/svg" xmlns:xlink="http://www.w3.org/1999/xlink" width="500" zoomAndPan="magnify" viewBox="0 0 375 374.999991" height="500" preserveAspectRatio="xMidYMid meet" version="1.0"><defs><clipPath id="61dc23e414"><path d="M 310 22.265625 L 366 22.265625 L 366 88 L 310 88 Z M 310 22.265625 " clip-rule="nonzero"/></clipPath><clipPath id="04a2efeac3"><path d="M 59 22.265625 L 313 22.265625 L 313 353 L 59 353 Z M 59 22.265625 " clip-rule="nonzero"/></clipPath></defs><path fill="#ff0000" d="M 238.820312 352.769531 L 44.308594 352.769531 C 22.265625 352.769531 4.0625 336.140625 1.492188 314.75 L 217.015625 314.75 C 218.523438 330.382812 226.785156 343.992188 238.820312 352.769531 Z M 238.820312 352.769531 " fill-opacity="1" fill-rule="nonzero"/><path fill="#ff0000" d="M 353.660156 210.707031 C 354.3125 208.480469 356.300781 206.972656 358.597656 206.972656 L 373.472656 206.972656 L 373.472656 187.089844 L 358.597656 187.089844 C 356.332031 187.089844 354.3125 185.546875 353.660156 183.351562 C 352.5625 179.476562 351.019531 175.84375 349.136719 172.554688 C 348.003906 170.53125 348.347656 167.992188 349.992188 166.347656 L 360.515625 155.824219 L 346.425781 141.734375 L 335.9375 152.257812 C 334.292969 153.90625 331.789062 154.246094 329.800781 153.117188 C 326.304688 151.195312 322.636719 149.6875 318.898438 148.625 C 316.703125 147.972656 315.164062 145.953125 315.164062 143.652344 L 315.164062 128.777344 L 295.28125 128.777344 L 295.28125 143.652344 C 295.28125 145.949219 293.738281 147.972656 291.542969 148.625 C 287.804688 149.6875 284.136719 151.195312 280.640625 153.117188 C 278.652344 154.246094 276.148438 153.90625 274.539062 152.257812 L 264.015625 141.734375 L 249.925781 155.824219 L 260.484375 166.347656 C 262.09375 167.992188 262.4375 170.53125 261.308594 172.554688 C 259.421875 175.84375 257.914062 179.476562 256.78125 183.351562 C 256.128906 185.546875 254.140625 187.089844 251.84375 187.089844 L 236.96875 187.089844 L 236.96875 206.972656 L 251.84375 206.972656 C 254.140625 206.972656 256.164062 208.480469 256.78125 210.707031 C 257.878906 214.480469 259.386719 218.113281 261.308594 221.574219 C 262.4375 223.5625 262.09375 226.101562 260.484375 227.710938 L 249.925781 238.269531 L 264.015625 252.324219 L 274.574219 241.765625 C 276.183594 240.121094 278.722656 239.8125 280.742188 240.945312 C 284.035156 242.828125 287.667969 244.335938 291.542969 245.46875 C 293.769531 246.085938 295.277344 248.109375 295.277344 250.40625 L 295.277344 265.285156 L 315.160156 265.285156 L 315.160156 250.40625 C 315.160156 248.109375 316.703125 246.085938 318.898438 245.46875 C 322.773438 244.335938 326.40625 242.828125 329.695312 240.945312 C 331.71875 239.777344 334.257812 240.121094 335.902344 241.765625 L 346.425781 252.324219 L 360.515625 238.269531 L 349.992188 227.710938 C 348.347656 226.101562 348.003906 223.5625 349.136719 221.574219 C 351.054688 218.113281 352.597656 214.480469 353.660156 210.707031 Z M 335.285156 201.554688 C 334.632812 206.355469 332.644531 211.121094 329.59375 215.199219 C 327.878906 217.566406 325.753906 219.65625 323.355469 221.4375 C 319.34375 224.453125 314.546875 226.441406 309.539062 227.09375 C 308.273438 227.335938 306.761719 227.4375 305.222656 227.4375 L 305.117188 227.4375 C 303.609375 227.4375 302.136719 227.300781 300.730469 227.058594 C 295.898438 226.441406 291.097656 224.453125 287.050781 221.371094 C 284.6875 219.65625 282.5625 217.5625 280.8125 215.128906 C 277.796875 211.121094 275.808594 206.355469 275.15625 201.351562 C 274.917969 200.082031 274.8125 198.574219 274.8125 197.03125 C 274.8125 195.488281 274.917969 193.980469 275.15625 192.539062 C 275.808594 187.742188 277.796875 182.941406 280.914062 178.828125 C 282.628906 176.496094 284.722656 174.40625 287.085938 172.65625 C 291.097656 169.605469 295.898438 167.652344 300.9375 166.964844 C 303.472656 166.519531 306.796875 166.519531 309.710938 167 C 314.546875 167.652344 319.34375 169.605469 323.425781 172.691406 C 325.6875 174.371094 327.777344 176.460938 329.558594 178.828125 C 332.679688 182.976562 334.632812 187.773438 335.320312 192.710938 C 335.523438 193.980469 335.664062 195.488281 335.664062 197.03125 C 335.664062 198.574219 335.523438 200.082031 335.285156 201.554688 Z M 335.285156 201.554688 " fill-opacity="1" fill-rule="nonzero"/><g clip-path="url(#61dc23e414)"><path fill="#ff0000" d="M 365.589844 49.863281 L 365.589844 87.605469 L 310.363281 87.605469 L 310.363281 49.863281 C 310.363281 34.640625 322.738281 22.230469 337.992188 22.230469 C 353.214844 22.230469 365.589844 34.640625 365.589844 49.863281 Z M 365.589844 49.863281 " fill-opacity="1" fill-rule="nonzero"/></g><g clip-path="url(#04a2efeac3)"><path fill="#ff0000" d="M 95.113281 22.230469 C 75.640625 22.230469 59.769531 38.070312 59.769531 57.507812 L 59.769531 304.464844 L 221.882812 304.464844 C 224.730469 304.464844 227.027344 306.761719 227.027344 309.609375 C 227.027344 332.507812 244.953125 351.261719 267.511719 352.632812 C 285.714844 351.363281 300.078125 335.972656 300.078125 317.492188 L 300.078125 275.566406 L 290.136719 275.566406 C 287.292969 275.566406 284.996094 273.269531 284.996094 270.425781 L 284.996094 254.140625 C 282.972656 253.421875 281.054688 252.632812 279.167969 251.707031 L 267.648438 263.226562 C 265.625 265.25 262.402344 265.25 260.382812 263.226562 L 239.023438 241.902344 C 238.066406 240.945312 237.515625 239.640625 237.515625 238.269531 C 237.515625 236.898438 238.066406 235.597656 239.023438 234.636719 L 250.542969 223.117188 C 249.617188 221.199219 248.792969 219.242188 248.109375 217.253906 L 231.824219 217.253906 C 228.980469 217.253906 226.683594 214.957031 226.683594 212.113281 L 226.683594 181.945312 C 226.683594 179.101562 228.980469 176.804688 231.824219 176.804688 L 248.109375 176.804688 C 248.828125 174.78125 249.617188 172.828125 250.542969 170.941406 L 239.023438 159.457031 C 238.066406 158.464844 237.515625 157.160156 237.515625 155.789062 C 237.515625 154.453125 238.066406 153.117188 239.023438 152.15625 L 260.382812 130.832031 C 262.402344 128.84375 265.625 128.84375 267.648438 130.832031 L 279.132812 142.351562 C 281.054688 141.425781 283.007812 140.636719 284.996094 139.917969 L 284.996094 123.632812 C 284.996094 120.824219 287.292969 118.492188 290.136719 118.492188 L 300.078125 118.492188 L 300.078125 49.863281 C 300.078125 38.960938 304.742188 29.15625 312.113281 22.230469 Z M 198.128906 58.742188 C 198.128906 57.265625 199.222656 56.066406 200.5625 56.066406 L 217.257812 56.066406 C 218.59375 56.066406 219.691406 57.265625 219.691406 58.742188 C 219.691406 60.214844 218.59375 61.414062 217.257812 61.414062 L 206.457031 61.414062 C 205.085938 61.414062 203.988281 62.578125 203.988281 64.054688 L 203.988281 65.734375 C 203.988281 67.207031 205.085938 68.40625 206.457031 68.40625 L 216.160156 68.40625 C 217.496094 68.40625 218.59375 69.574219 218.59375 71.046875 C 218.59375 72.519531 217.496094 73.722656 216.160156 73.722656 L 206.457031 73.722656 C 205.085938 73.722656 203.988281 74.886719 203.988281 76.359375 L 203.988281 79.617188 C 203.988281 81.089844 205.085938 82.292969 206.457031 82.292969 L 217.804688 82.292969 C 219.140625 82.292969 220.238281 83.457031 220.238281 84.929688 C 220.238281 86.40625 219.140625 87.605469 217.804688 87.605469 L 200.5625 87.605469 C 199.222656 87.605469 198.128906 86.40625 198.128906 84.929688 Z M 175.605469 77.558594 L 176.359375 77.457031 C 177.628906 77.320312 178.757812 78.246094 179.03125 79.582031 C 179.167969 80.164062 179.339844 80.644531 179.511719 80.988281 C 180.164062 82.121094 181.125 82.703125 182.425781 82.703125 C 183.730469 82.703125 184.65625 82.292969 185.203125 81.46875 C 185.75 80.679688 186.027344 79 186.027344 76.429688 L 186.027344 58.742188 C 186.027344 57.265625 187.121094 56.066406 188.460938 56.066406 L 189.417969 56.066406 C 190.757812 56.066406 191.886719 57.265625 191.886719 58.742188 L 191.886719 76.019531 C 191.886719 78.625 191.648438 80.644531 191.238281 82.050781 C 190.652344 83.867188 189.625 85.34375 188.152344 86.472656 C 186.644531 87.570312 184.6875 88.117188 182.222656 88.117188 C 179.339844 88.117188 177.148438 87.261719 175.605469 85.515625 C 174.472656 84.28125 173.789062 82.597656 173.445312 80.507812 C 173.238281 79.070312 174.265625 77.730469 175.605469 77.558594 Z M 144.03125 63.949219 C 144.683594 62.339844 145.609375 60.898438 146.738281 59.632812 C 147.90625 58.328125 149.140625 57.402344 150.511719 56.785156 C 152.328125 55.964844 154.417969 55.519531 156.785156 55.519531 C 161.070312 55.519531 164.496094 56.992188 167.070312 59.871094 C 169.640625 62.75 170.941406 66.726562 170.941406 71.871094 C 170.941406 76.976562 169.640625 80.953125 167.101562 83.832031 C 164.53125 86.679688 161.136719 88.117188 156.851562 88.117188 C 152.53125 88.117188 149.105469 86.714844 146.535156 83.832031 C 143.996094 80.988281 142.695312 77.046875 142.695312 72.042969 C 142.695312 68.820312 143.140625 66.109375 144.03125 63.949219 Z M 114.550781 58.742188 C 114.550781 57.265625 115.648438 56.066406 117.019531 56.066406 L 126.925781 56.066406 C 130.046875 56.066406 132.308594 56.339844 133.714844 56.921875 C 135.117188 57.472656 136.25 58.5 137.105469 59.941406 C 137.929688 61.378906 138.375 63.058594 138.375 64.910156 C 138.375 67.277344 137.722656 69.230469 136.421875 70.773438 C 135.152344 72.316406 133.234375 73.277344 130.664062 73.6875 C 131.964844 74.476562 132.992188 75.367188 133.816406 76.328125 C 134.640625 77.285156 135.769531 79 137.175781 81.433594 L 138.375 83.527344 C 139.402344 85.308594 138.238281 87.605469 136.285156 87.605469 L 135.015625 87.605469 C 134.191406 87.605469 133.4375 87.160156 132.957031 86.40625 L 129.460938 80.75 C 127.953125 78.28125 126.925781 76.738281 126.34375 76.085938 C 125.792969 75.46875 125.210938 75.023438 124.59375 74.785156 C 123.976562 74.542969 122.984375 74.441406 121.613281 74.441406 L 120.445312 74.441406 L 120.445312 84.929688 C 120.445312 86.40625 119.347656 87.605469 117.976562 87.605469 L 117.019531 87.605469 C 115.648438 87.605469 114.550781 86.40625 114.550781 84.929688 Z M 87.433594 58.742188 C 87.433594 57.265625 88.53125 56.066406 89.867188 56.066406 L 96.859375 56.066406 C 100.425781 56.066406 102.757812 56.238281 103.855469 56.546875 C 105.5 57.027344 106.90625 58.054688 108.035156 59.632812 C 109.167969 61.207031 109.714844 63.265625 109.714844 65.769531 C 109.714844 67.6875 109.40625 69.332031 108.757812 70.636719 C 108.105469 71.972656 107.28125 73 106.289062 73.753906 C 105.292969 74.511719 104.265625 75.023438 103.238281 75.265625 C 101.832031 75.539062 99.808594 75.710938 97.136719 75.710938 L 95.765625 75.710938 C 94.394531 75.710938 93.296875 76.875 93.296875 78.347656 L 93.296875 84.929688 C 93.296875 86.40625 92.199219 87.605469 90.863281 87.605469 L 89.867188 87.605469 C 88.53125 87.605469 87.433594 86.40625 87.433594 84.929688 Z M 82.292969 114.515625 C 82.292969 111.671875 84.589844 109.375 87.433594 109.375 L 177.902344 109.375 C 180.746094 109.375 183.042969 111.671875 183.042969 114.515625 L 183.042969 150.613281 C 183.042969 153.457031 180.746094 155.753906 177.902344 155.753906 L 87.433594 155.753906 C 84.589844 155.753906 82.292969 153.457031 82.292969 150.613281 Z M 87.433594 182.359375 L 203.542969 182.359375 C 206.390625 182.359375 208.6875 184.652344 208.6875 187.5 C 208.6875 190.34375 206.390625 192.640625 203.542969 192.640625 L 87.433594 192.640625 C 84.589844 192.640625 82.292969 190.34375 82.292969 187.5 C 82.292969 184.65625 84.589844 182.359375 87.433594 182.359375 Z M 87.433594 222.226562 L 209.199219 222.226562 C 212.046875 222.226562 214.34375 224.523438 214.34375 227.367188 C 214.34375 230.214844 212.046875 232.511719 209.199219 232.511719 L 87.433594 232.511719 C 84.589844 232.511719 82.292969 230.214844 82.292969 227.367188 C 82.292969 224.523438 84.589844 222.226562 87.433594 222.226562 Z M 236.523438 262.0625 C 239.367188 262.0625 241.664062 264.355469 241.664062 267.203125 C 241.664062 270.046875 239.367188 272.34375 236.523438 272.34375 L 87.433594 272.34375 C 84.589844 272.34375 82.292969 270.046875 82.292969 267.203125 C 82.292969 264.359375 84.589844 262.0625 87.433594 262.0625 Z M 248.691406 80.644531 C 247.800781 82.769531 246.667969 84.417969 245.195312 85.617188 C 243.171875 87.296875 240.601562 88.121094 237.449219 88.121094 C 233.609375 88.121094 230.417969 86.714844 227.953125 83.835938 C 225.449219 80.988281 224.214844 77.082031 224.214844 72.109375 C 224.214844 66.867188 225.449219 62.785156 227.953125 59.871094 C 230.453125 56.992188 233.746094 55.519531 237.824219 55.519531 C 241.390625 55.519531 244.269531 56.683594 246.496094 58.945312 C 247.183594 59.667969 247.800781 60.523438 248.316406 61.585938 C 249.070312 63.128906 248.316406 65.046875 246.738281 65.460938 L 245.8125 65.699219 C 244.75 65.972656 243.550781 65.527344 243.070312 64.464844 C 242.691406 63.644531 242.144531 62.957031 241.492188 62.410156 C 240.394531 61.449219 239.09375 60.96875 237.515625 60.96875 C 235.355469 60.96875 233.609375 61.828125 232.269531 63.507812 C 230.933594 65.152344 230.25 67.894531 230.25 71.628906 C 230.25 75.640625 230.933594 78.453125 232.238281 80.167969 C 233.574219 81.847656 235.289062 82.703125 237.414062 82.703125 C 238.957031 82.703125 240.292969 82.15625 241.425781 81.09375 C 242.144531 80.371094 242.761719 79.445312 243.207031 78.246094 C 243.6875 77.011719 244.988281 76.394531 246.1875 76.808594 L 247.148438 77.148438 C 248.484375 77.59375 249.238281 79.242188 248.691406 80.644531 Z M 273.167969 61.414062 L 269.464844 61.414062 C 268.128906 61.414062 267.03125 62.578125 267.03125 64.054688 L 267.03125 84.929688 C 267.03125 86.40625 265.933594 87.605469 264.5625 87.605469 L 263.605469 87.605469 C 262.234375 87.605469 261.136719 86.40625 261.136719 84.929688 L 261.136719 64.054688 C 261.136719 62.578125 260.039062 61.414062 258.703125 61.414062 L 254.964844 61.414062 C 253.59375 61.414062 252.496094 60.214844 252.496094 58.742188 C 252.496094 57.265625 253.59375 56.066406 254.964844 56.066406 L 273.167969 56.066406 C 274.539062 56.066406 275.636719 57.265625 275.636719 58.742188 C 275.636719 60.214844 274.539062 61.414062 273.167969 61.414062 Z M 273.167969 61.414062 " fill-opacity="1" fill-rule="nonzero"/></g><path fill="#ff0000" d="M 300.078125 177.628906 L 300.078125 216.46875 C 297.609375 215.816406 295.28125 214.71875 293.152344 213.109375 C 291.613281 211.976562 290.238281 210.640625 289.074219 209.027344 C 287.050781 206.320312 285.785156 203.269531 285.304688 199.808594 C 285.167969 198.949219 285.097656 197.992188 285.097656 197.03125 C 285.097656 196.070312 285.167969 195.144531 285.339844 194.082031 C 285.785156 190.859375 287.085938 187.707031 289.144531 184.996094 C 290.273438 183.457031 291.644531 182.082031 293.222656 180.917969 C 295.246094 179.375 297.542969 178.277344 300.078125 177.628906 Z M 300.078125 177.628906 " fill-opacity="1" fill-rule="nonzero"/><path fill="#ff0000" d="M 325.378906 197.03125 C 325.378906 197.988281 325.273438 198.949219 325.105469 199.976562 C 324.660156 203.269531 323.425781 206.320312 321.332031 209.0625 C 320.203125 210.640625 318.832031 211.976562 317.21875 213.175781 C 315.195312 214.71875 312.867188 215.816406 310.363281 216.46875 L 310.363281 177.59375 C 312.832031 178.246094 315.164062 179.339844 317.253906 180.917969 C 318.796875 182.082031 320.167969 183.457031 321.367188 184.996094 C 323.390625 187.707031 324.691406 190.859375 325.136719 194.253906 C 325.273438 195.144531 325.378906 196.070312 325.378906 197.03125 Z M 325.378906 197.03125 " fill-opacity="1" fill-rule="nonzero"/><path fill="#ff0000" d="M 103.683594 65.871094 C 103.683594 66.796875 103.441406 67.621094 102.996094 68.304688 C 102.550781 69.023438 101.933594 69.539062 101.179688 69.847656 C 100.390625 70.191406 98.847656 70.363281 96.519531 70.363281 L 95.765625 70.363281 C 94.390625 70.363281 93.296875 69.160156 93.296875 67.6875 L 93.296875 64.054688 C 93.296875 62.582031 94.390625 61.414062 95.765625 61.414062 L 96.140625 61.414062 C 98.265625 61.414062 99.671875 61.484375 100.355469 61.621094 C 101.316406 61.792969 102.105469 62.273438 102.722656 63.027344 C 103.339844 63.78125 103.683594 64.707031 103.683594 65.871094 Z M 103.683594 65.871094 " fill-opacity="1" fill-rule="nonzero"/><path fill="#ff0000" d="M 132.308594 65.324219 C 132.308594 66.25 132.101562 67.035156 131.726562 67.6875 C 131.3125 68.304688 130.765625 68.75 130.078125 69.023438 C 129.359375 69.265625 127.609375 69.402344 124.800781 69.402344 L 122.878906 69.402344 C 121.542969 69.402344 120.445312 68.203125 120.445312 66.761719 L 120.445312 64.054688 C 120.445312 62.582031 121.542969 61.414062 122.878906 61.414062 L 125.003906 61.414062 C 127.40625 61.414062 128.84375 61.449219 129.324219 61.519531 C 130.25 61.6875 131.003906 62.101562 131.519531 62.75 C 132.035156 63.402344 132.308594 64.261719 132.308594 65.324219 Z M 132.308594 65.324219 " fill-opacity="1" fill-rule="nonzero"/><path fill="#ff0000" d="M 164.875 71.734375 C 164.875 75.367188 164.121094 78.109375 162.613281 79.960938 C 161.105469 81.777344 159.183594 82.703125 156.851562 82.703125 C 154.488281 82.703125 152.566406 81.777344 151.058594 79.925781 C 149.515625 78.074219 148.761719 75.367188 148.761719 71.800781 C 148.761719 68.203125 149.515625 65.460938 150.992188 63.675781 C 152.464844 61.859375 154.417969 60.96875 156.851562 60.96875 C 159.253906 60.96875 161.207031 61.859375 162.679688 63.644531 C 164.121094 65.425781 164.875 68.097656 164.875 71.734375 Z M 164.875 71.734375 " fill-opacity="1" fill-rule="nonzero"/><path fill="#ff0000" d="M 172.757812 119.65625 L 92.574219 119.65625 L 92.574219 145.472656 L 172.757812 145.472656 Z M 172.757812 119.65625 " fill-opacity="1" fill-rule="nonzero"/></svg>