<svg xmlns="http://www.w3.org/2000/svg" xmlns:xlink="http://www.w3.org/1999/xlink" width="500" zoomAndPan="magnify" viewBox="0 0 375 374.999991" height="500" preserveAspectRatio="xMidYMid meet" version="1.0"><defs><clipPath id="086d0fba95"><path d="M 19.21875 0 L 355.96875 0 L 355.96875 375 L 19.21875 375 Z M 19.21875 0 " clip-rule="nonzero"/></clipPath></defs><g clip-path="url(#086d0fba95)"><path fill="#ff0000" d="M 355.734375 136.835938 L 355.734375 169.03125 C 355.734375 183.828125 343.753906 195.863281 329.027344 195.863281 C 314.296875 195.863281 302.316406 183.824219 302.316406 169.03125 L 302.316406 145.570312 C 302.300781 145.308594 302.164062 145.082031 302.164062 144.816406 C 302.164062 79.757812 250.644531 26.828125 187.316406 26.828125 C 125.445312 26.828125 74.980469 77.378906 72.683594 140.375 L 72.683594 174.402344 C 72.683594 192.152344 87.0625 206.597656 104.734375 206.597656 C 110.636719 206.597656 115.421875 211.402344 115.421875 217.328125 C 115.421875 223.257812 110.636719 228.058594 104.734375 228.058594 C 82.226562 228.058594 63.019531 213.957031 55.167969 194.125 C 52.285156 195.191406 49.21875 195.863281 45.972656 195.863281 C 31.246094 195.867188 19.265625 183.828125 19.265625 169.035156 L 19.265625 136.835938 C 19.265625 122.042969 31.246094 110.007812 45.972656 110.007812 C 47.335938 110.007812 48.648438 110.210938 49.960938 110.410156 C 65.117188 47.144531 120.863281 0 187.316406 0 C 253.777344 0 309.535156 47.160156 324.679688 110.449219 C 326.101562 110.210938 327.535156 110.007812 329.027344 110.007812 C 343.753906 110.007812 355.734375 122.042969 355.734375 136.835938 Z M 275.390625 144.820312 C 275.390625 95.957031 235.953125 56.34375 187.3125 56.34375 C 138.671875 56.34375 99.242188 95.957031 99.242188 144.820312 C 99.242188 193.683594 138.671875 233.292969 187.3125 233.292969 C 235.953125 233.292969 275.390625 193.683594 275.390625 144.820312 Z M 274.992188 260.125 L 243.632812 260.125 C 236.652344 260.125 230.113281 263.546875 226.117188 269.296875 L 204.195312 300.816406 C 195.621094 313.144531 177.410156 313.023438 169 300.582031 L 148.015625 269.53125 C 144.039062 263.644531 137.417969 260.121094 130.339844 260.121094 L 99.546875 260.121094 C 59.890625 260.121094 27.738281 292.414062 27.738281 332.253906 L 27.738281 364.265625 C 27.738281 370.195312 32.523438 374.996094 38.425781 374.996094 L 336.113281 374.996094 C 342.011719 374.996094 346.796875 370.191406 346.796875 364.265625 L 346.796875 332.253906 C 346.796875 292.417969 314.648438 260.125 274.992188 260.125 Z M 274.992188 260.125 " fill-opacity="1" fill-rule="nonzero"/></g></svg>