<svg xmlns="http://www.w3.org/2000/svg" xmlns:xlink="http://www.w3.org/1999/xlink" width="500" zoomAndPan="magnify" viewBox="0 0 375 374.999991" height="500" preserveAspectRatio="xMidYMid meet" version="1.0"><defs><clipPath id="2cd03a644d"><path d="M 10.277344 85 L 182 85 L 182 293 L 10.277344 293 Z M 10.277344 85 " clip-rule="nonzero"/></clipPath></defs><path fill="#ff0000" d="M 346.925781 29.117188 C 337.117188 29.117188 329.136719 37.027344 329.136719 46.839844 L 329.136719 328.816406 C 329.136719 338.625 337.117188 346.535156 346.925781 346.535156 C 356.667969 346.535156 364.648438 338.625 364.648438 328.816406 L 364.648438 46.839844 C 364.648438 37.027344 356.667969 29.117188 346.925781 29.117188 Z M 358.109375 328.816406 C 358.109375 335.027344 353.070312 339.996094 346.925781 339.996094 C 340.710938 339.996094 335.675781 335.027344 335.675781 328.816406 L 335.675781 46.839844 C 335.675781 40.625 340.710938 35.65625 346.925781 35.65625 C 353.070312 35.65625 358.109375 40.625 358.109375 46.839844 Z M 358.109375 328.816406 " fill-opacity="1" fill-rule="nonzero"/><g clip-path="url(#2cd03a644d)"><path fill="#ff0000" d="M 179.714844 159.839844 L 160.09375 151.992188 L 160.09375 89.148438 C 160.09375 87.96875 159.441406 86.859375 158.328125 86.269531 C 157.285156 85.683594 155.976562 85.746094 154.996094 86.464844 L 61.679688 149.898438 L 25.972656 149.898438 C 17.339844 149.898438 10.34375 156.894531 10.34375 165.527344 L 10.34375 212.675781 C 10.34375 221.242188 17.339844 228.304688 25.972656 228.304688 L 61.679688 228.304688 L 154.996094 291.738281 C 155.519531 292.0625 156.171875 292.261719 156.824219 292.261719 C 157.347656 292.261719 157.871094 292.128906 158.328125 291.933594 C 159.441406 291.34375 160.09375 290.234375 160.09375 288.992188 L 160.09375 226.148438 L 179.714844 218.300781 C 180.957031 217.84375 181.804688 216.601562 181.804688 215.292969 L 181.804688 162.910156 C 181.804688 161.539062 180.957031 160.363281 179.714844 159.839844 Z M 59.453125 221.765625 L 25.972656 221.765625 C 21.003906 221.765625 16.882812 217.644531 16.882812 212.675781 L 16.882812 165.527344 C 16.882812 160.492188 21.003906 156.4375 25.972656 156.4375 L 59.453125 156.4375 Z M 153.554688 282.84375 L 133.347656 269.109375 L 133.347656 109.09375 L 153.554688 95.359375 Z M 175.265625 213.070312 L 160.09375 219.148438 L 160.09375 159.054688 L 175.265625 165.136719 Z M 175.265625 213.070312 " fill-opacity="1" fill-rule="nonzero"/></g><path fill="#ff0000" d="M 293.957031 177.234375 L 237.78125 177.234375 C 231.242188 177.234375 225.945312 182.53125 225.945312 189.070312 C 225.945312 195.609375 231.242188 200.90625 237.78125 200.90625 L 293.957031 200.90625 C 300.496094 200.90625 305.859375 195.609375 305.859375 189.070312 C 305.859375 182.53125 300.496094 177.234375 293.957031 177.234375 Z M 293.957031 177.234375 " fill-opacity="1" fill-rule="nonzero"/><path fill="#ff0000" d="M 218.425781 171.871094 C 221.566406 171.871094 224.507812 170.695312 226.796875 168.40625 L 266.492188 128.710938 C 271.132812 124.066406 271.132812 116.546875 266.492188 111.90625 C 261.914062 107.328125 254.394531 107.328125 249.75 111.90625 L 209.992188 151.664062 C 207.765625 153.886719 206.523438 156.894531 206.523438 160.035156 C 206.523438 163.238281 207.765625 166.179688 209.992188 168.40625 C 212.28125 170.695312 215.222656 171.871094 218.425781 171.871094 Z M 218.425781 171.871094 " fill-opacity="1" fill-rule="nonzero"/><path fill="#ff0000" d="M 226.796875 209.734375 C 222.152344 205.15625 214.632812 205.15625 209.992188 209.734375 C 205.414062 214.375 205.414062 221.898438 209.992188 226.472656 L 249.75 266.234375 C 251.972656 268.457031 254.980469 269.699219 258.121094 269.699219 C 261.324219 269.699219 264.265625 268.457031 266.492188 266.234375 C 268.714844 264.011719 269.957031 261.003906 269.957031 257.863281 C 269.957031 254.660156 268.714844 251.714844 266.492188 249.492188 Z M 226.796875 209.734375 " fill-opacity="1" fill-rule="nonzero"/></svg>